<?xml version="1.0" encoding="UTF-8"?>
<svg width="700pt" height="700pt" version="1.1" viewBox="0 0 700 700" xmlns="http://www.w3.org/2000/svg">
 <path d="m492.94 78.352h-47.113c-4.1133-17.191-15.777-31.602-31.73-39.215-15.953-7.6172-34.496-7.6172-50.449 0-15.953 7.6133-27.617 22.023-31.73 39.215h-47.109c-16.09 0-31.523 6.3945-42.898 17.77-11.379 11.379-17.77 26.809-17.77 42.898v67.922h-19.996c-15.312 0.019532-29.988 6.1094-40.816 16.938-10.824 10.824-16.918 25.504-16.934 40.812v204.17c0.015625 15.312 6.1094 29.988 16.934 40.816 10.828 10.824 25.504 16.914 40.816 16.934h145.86c15.312-0.019531 29.988-6.1094 40.816-16.934 10.824-10.828 16.914-25.504 16.934-40.816v-8.5391h85.215c16.09 0 31.52-6.3906 42.895-17.77 11.379-11.375 17.77-26.809 17.77-42.898v-260.63c0-16.094-6.3945-31.527-17.777-42.906-11.383-11.379-26.816-17.766-42.91-17.762zm-104.09-16.988v0.003907c5.6445 0.050781 11.168 1.6641 15.957 4.6602 4.7852 3 8.6445 7.2656 11.156 12.324h-54.297c2.5156-5.0625 6.3906-9.332 11.191-12.328 4.7969-2.9922 10.332-4.5977 15.992-4.6328zm-69.043 44.988h138.13v17.828c0 2.4766-0.98438 4.8516-2.7344 6.6016s-4.125 2.7305-6.6016 2.7305h-119.46c-5.1562 0-9.332-4.1758-9.332-9.332zm59.922 362.51h-0.003907c-0.011718 7.8828-3.1484 15.438-8.7188 21.016-5.5703 5.5742-13.125 8.7148-21.008 8.7344h-145.86c-7.8867-0.011719-15.449-3.1484-21.023-8.7266-5.5781-5.5781-8.7148-13.137-8.7266-21.023v-204.17c0.011719-7.8828 3.1484-15.445 8.7266-21.02 5.5742-5.5781 13.137-8.7148 21.023-8.7305h100.64c4.0156 0 7.8711 1.5938 10.707 4.4336l59.781 59.781c2.8516 2.8438 4.4492 6.707 4.4336 10.734zm145.88-69.207h-0.003906c0 8.6641-3.4414 16.973-9.5664 23.102-6.125 6.125-14.434 9.5664-23.098 9.5664h-85.215v-122.45c0.035157-11.457-4.5195-22.449-12.648-30.52l-59.754-59.758c-8.0742-8.125-19.066-12.68-30.52-12.648h-52.664v-67.922c0-8.6641 3.4414-16.973 9.5664-23.098 6.1289-6.125 14.438-9.5703 23.102-9.5703h7v17.828c0 9.9023 3.9297 19.398 10.934 26.398 7 7 16.496 10.934 26.398 10.934h119.46c9.9023 0 19.398-3.9336 26.398-10.934 7.0039-7 10.938-16.496 10.938-26.398v-17.828h7c8.6641 0 16.973 3.4453 23.098 9.5703s9.5664 14.434 9.5664 23.098z"/>
</svg>
